<svg id="Layer_1" data-name="Layer 1" xmlns="http://www.w3.org/2000/svg" viewBox="0 0 597.8 447.7"><defs><style>.cls-1,.cls-14{fill:#2e2e2e;}.cls-12,.cls-2{fill:#f8b602;}.cls-3{fill:#06a339;}.cls-4{fill:#047f2b;}.cls-5{fill:#ccc;}.cls-6{fill:#7ab61d;}.cls-7{fill:#fa0606;}.cls-8{fill:#fb9209;}.cls-9{fill:#779276;}.cls-10{fill:#71992b;}.cls-11{fill:#8eb24c;}.cls-12{font-size:102.77px;font-family:NeutraDisp-Titling, Neutra Display;}.cls-13{letter-spacing:-0.01em;}.cls-14{letter-spacing:-0.01em;}</style></defs><title>logo(02)</title><path class="cls-1" d="M447.8,424.4c-3.3,3.2-6.4,5.6-10.5,7.2-29.4,11.3-56.7,26.4-81.2,46.2a41.3,41.3,0,0,0-7.7,8.1c-5.1,7.2-3.8,11.5,4.5,14.2s17.8,3,26.9,2.5c25.7-1.4,49.9-9.8,74.2-17.2,31.8-9.7,63.1-20.8,92.8-36,9.5-4.9,18.8-10.2,26.7-17.6,5.3-4.9,11.1-10.5,8.4-18.3s-10.4-7-16.7-7.6c-17.9-1.8-35.6.6-53.2,4.1-9.2,1.8-18.3,4.1-27.8,6.2a25,25,0,0,0-7.3-10.6c35.9-8.2,70.6-18.7,107-7.9,1.2-1.7.1-3.5-.1-5.2-.7-9.5,3.7-17.5,12.2-21.3l90.6-41.4c7.1-3.2,14-3.4,20.1,1.7s9.1,11.8,7.9,19.8-5.1,10.9-11.1,13.8c-28.4,13.8-56.9,27.5-85.2,41.6-8.1,4.1-15.8,6.4-25,1.2,1.6,7,3.5,13,4.3,19.2,4.1,33.2-6.1,62.5-27.8,86.7-44,49-98.9,66.9-163.1,50.2-33.1-8.6-57.9-28.9-71.5-61.5-3.2-7.6-2.3-14.5,2-21.2a68.7,68.7,0,0,1,15.5-16.7c24.2-19.3,51.5-33,80.3-43.9,1.1-.4,2-.9,3.2-.3a44.3,44.3,0,0,0,5.4,2.2Zm156.7-25.3c7.1-2.1,9.8-5.7,8.8-10.7a8.9,8.9,0,0,0-9.1-7.1c-4.5.2-7.4,3.2-7.6,7.8,3.2-2.2,6.6-3.3,9.6,0S607.8,395.6,604.5,399.2Z" transform="translate(-201.1 -240.9)"/><path class="cls-2" d="M384.4,397.1c-1.1,4.3-1.8,7.4-2.7,10.5-2.1,6.9-8.6,8.8-14,4.1-11.9-10.4-12.8-29.8-1.9-41.5s30.6-12.9,42-1.8c5,4.9,3.6,11.8-3,14.5-3.1,1.3-6.5,1.7-9.8,3.8,5.1,3.8,9.9,7.4,14.7,10.9s5.8,6.1,5,10.8-3.4,6.6-7.3,7.6-7.8-1-10.6-4.3Zm-5.5-24.7a7.8,7.8,0,0,0,2.4.1,19.3,19.3,0,0,1,17.5,2.9c1,.7,2.1,1.3,2.9-.1s-.1-2.5-1.2-3.3c-6.1-4.1-12.7-5.4-19.9-3.1C379.4,369.4,378.3,370.1,378.9,372.4Z" transform="translate(-201.1 -240.9)"/><path class="cls-3" d="M342.7,437a20.6,20.6,0,0,1-31.8-1.5c-1.9-2.5-4.3-4.1-6.6-6.1-5.4-4.7-10.7-9.6-15.7-14.6s-4.3-14.7,1-20.4,14.6-6.7,20.8-1.7c2.4,1.9,5.1,2.4,7.7,3.4,7.5,2.8,15.1,5.6,21.8,9.7,8.6,5.2,10.7,15.5,6.7,25.9l-2.4-1.6c-4.6-2.6-8.9-5.4-7.6-11.9.4-1.8-1.1-3.3-3.2-3.5s-2.1,3.9-3,5.9c-3.3-.7-4.6-2.8-4.4-6s.6-6.3-3-6.7-1.9,3.9-3.5,6c-4.6-1.5-5-5.3-5.2-9.3-.1-1.7-.2-3.5-2.3-3.6s-2.5,1.6-2.6,3.3,0,1.7-1.3,2l-2.8-1.4c-2-1-4.2-3.9-6.1-.7s1.7,3.9,3.4,5.3,2.3,1.2,2.3,2.7-1.7,1-2.5,1.5-2.1,2-1.2,3.6,2.6,2.1,4.5,1c3.7-2.1,7.3-3.3,10.5,1.3l-2.8,1.6c-1.4.8-2.4,1.8-1.6,3.5s2.3,1.6,3.8,1.1a35.6,35.6,0,0,0,4-1.7c3.3-1.6,5.8-.5,7.9,2.5l-2.4,1.3c-1.7.8-2.6,2.1-1.8,3.9s2.5,1,3.9.8a16,16,0,0,0,2.3-.8C334.8,430.1,339.4,431.9,342.7,437Z" transform="translate(-201.1 -240.9)"/><path class="cls-2" d="M461.7,432.8c-3.2,3.9-6.1,7.8-9.3,11.5s-9.2,5.6-13,1.8-3-8.7,1.9-13,7.9-5.6,11.1-9.4c-2.4-1.7-5.1-1.7-7.5-2.6-5.8-2.1-7.1-8-2.7-12.4,9.1-9.2,25-9,34.3.4s9.4,25.2.1,34.3c-4.4,4.3-10.4,2.9-12.2-3C463.7,438,463.6,435.3,461.7,432.8ZM475,419.7l-3.7,18.8C477.6,436,479.9,424.1,475,419.7Z" transform="translate(-201.1 -240.9)"/><path class="cls-3" d="M497.6,346.9c-2.2,8.9-3.1,19-14.2,22.9-1.5.5-2.1,1.9-3.2,2.9-3,3-6.5,5.1-10.9,3.8-2.8-.8-4.6.2-6.3,2.3s-5.3,6.6-7.9,9.9-3.2,3.8-5.7,2-1.2-4.2.3-6.3l7.7-11.2c1.1-1.7,2-3.1.5-5.3a6.8,6.8,0,0,1-.5-7c2.5-4.8,3.2-10.1,5.3-15s5.2-7,9.4-9.4a48.8,48.8,0,0,1,13.6-5.6c6.7-1.5,10.8,1.4,11.4,8.2C497.4,341.6,497.4,344.1,497.6,346.9Zm-21.3,11.5c1.9-2.3,4.1-1.4,6.5-.8s3.3.1,3.8-1.9-.9-2.8-2.8-2.8-1.3-.1-1.5-1.1,1.2-1.6,2.4-1.8,3.7.4,4.7-1.7-1.9-2.7-2.4-4.4c1.2-2.3,5-4.5.7-7.3-2.4.8-3.2,3-4.8,4.3s-2.9-2.6-4.9-1-.2,3.1.2,4.5.6,3.3-1.5,4.3c-1.1-1.8-.7-5.2-3.8-4.2s-1.5,3.3-1,5.4,2.3,3.5-.2,5.5c-1.1-1.6-2.6-3.4-4.6-2s-.8,3-.3,4.5.3,4.8-1.3,6.8-1.9,4,1.1,5.8c3.1-3.6,6.3-7,11.6-6.4,1.1.1,2.6-1.3,2.3-2.3C479.7,359.3,477.2,360.6,476.3,358.4Z" transform="translate(-201.1 -240.9)"/><path class="cls-4" d="M342.7,437c-3.3-5.1-7.9-6.9-13-5.1a16,16,0,0,1-2.3.8c-1.4.3-3.1.9-3.9-.8s.1-3.1,1.8-3.9l2.4-1.3c-2.1-3.1-4.5-4.1-7.9-2.5a35.6,35.6,0,0,1-4,1.7c-1.5.5-3,.4-3.8-1.1s.1-2.7,1.6-3.5l2.8-1.6c-3.2-4.6-6.8-3.4-10.5-1.3-1.9,1.1-3.4.8-4.5-1s-.4-2.8,1.2-3.6,2-.3,2.5-1.5-1.3-1.9-2.3-2.7-5.3-2.2-3.4-5.3,4.1-.3,6.1.7l2.8,1.4c1.3-.4,1.2-1.3,1.3-2s.4-3.5,2.6-3.3,2.3,1.9,2.3,3.6c.1,4,.5,7.8,5.2,9.3,1.6-2-.7-6.4,3.5-6s3.1,4,3,6.7,1.1,5.3,4.4,6c.9-2,.7-4.6,3-5.9s3.5,1.7,3.2,3.5c-1.3,6.6,3,9.3,7.6,11.9l2.4,1.6,11,7.2c1.6,1.1,3.5,2.3,1.8,4.6s-3.1,1-4.7,0l-8.1-5.3C345.4,437.5,344.4,436.2,342.7,437Z" transform="translate(-201.1 -240.9)"/><path class="cls-5" d="M393.2,333.4c-.2-4.1,2.2-8.4,4.7-12.5,4.6-7.7,4.4-11.9-1.5-18.8s-9.1-14.9-5.8-24.1c.9-2.6,2.3-5.6,5.8-4.4s3.1,4.3,1.8,7.3c-2.5,5.5-.6,10.3,3.1,14.3,9,9.6,10.2,19.8,3.1,30.9-3.6,5.7-4.5,11.3-.2,17.1,1.4,1.9.9,3.7-.8,5.1s-4,1-5.5-.8C394.6,343.7,393.1,339.3,393.2,333.4Z" transform="translate(-201.1 -240.9)"/><path class="cls-4" d="M497.3,441.8c-2.5-.8-5.6-.7-6-4.4s-1.6-7.3,3.4-10.3,7.8-2.9,11.4-5a6.6,6.6,0,0,1,7,.3c5.4,3.6,10.1,8.2,12.5,14.3s-3,11.2-9.7,8.9l-3.7-3.2c-1.3-2.8-6.2-4.1-10-2.7Z" transform="translate(-201.1 -240.9)"/><path class="cls-6" d="M419.5,476.7c-8.1,13.2-26.2,18.6-40.9,12.5C385.2,472.4,405.6,468.7,419.5,476.7Z" transform="translate(-201.1 -240.9)"/><path class="cls-5" d="M408.8,283.3a18,18,0,0,1,3-10.7c6.5-10.7,6.4-12.6-.8-22.6l-1.9-2.8c-1.3-2-1.5-4,.7-5.5s4-1,5.7.6c10.1,9.6,11.5,20,4.3,32.4-3.2,5.5-4.7,11-.4,16.8,1.6,2.1,1.3,4.3-.9,5.9s-4.4.5-5.8-1.5A18.8,18.8,0,0,1,408.8,283.3Z" transform="translate(-201.1 -240.9)"/><path class="cls-7" d="M524,366.4c4.3,4.4,5.4,9.6,2.9,15.1s-6.5,7.5-12,7.6a13.1,13.1,0,0,1-6.9-24.1,37.1,37.1,0,0,1,4.4-2.1c2.2,2.3-2.9,3.4-.9,5.8s4-.7,6.1-.7,2.4,3.9,4.2,4C525.1,370.6,520.7,367.4,524,366.4Zm-16.6,5.5c-1.7,3.1-2.3,5.3.2,7.9C509,376.3,509,375.9,507.4,371.8Z" transform="translate(-201.1 -240.9)"/><path class="cls-5" d="M448.5,311.6c-.2,3.5-3.5,9-6.8,14.3a3.1,3.1,0,0,1-4.7,1c-1.6-1.1-3.3-2.4-2.1-4.8l3.3-6.5c3.2-6.3,2.6-11.2-1.9-16.6-1.4-1.7-2.8-3.6-4-5.4s-.8-3.8.9-5.2a3.5,3.5,0,0,1,4.9,0C443.2,294.4,448.6,300.1,448.5,311.6Z" transform="translate(-201.1 -240.9)"/><path class="cls-6" d="M390.2,458.9c9.8-6.2,21.5-2.6,28.2,8.5C410.3,472.9,396.2,468.6,390.2,458.9Z" transform="translate(-201.1 -240.9)"/><path class="cls-8" d="M439.9,383c-5.5-1-10.4-2.7-14.1-7s-2.9-8.7.8-11.5,8.5-1.5,11.1,2.9S440.8,377.4,439.9,383Z" transform="translate(-201.1 -240.9)"/><path class="cls-6" d="M533.3,439.6c-2.2-9.2,3.6-18.8,12.9-21.9C549.2,427.6,544.6,435.6,533.3,439.6Z" transform="translate(-201.1 -240.9)"/><path class="cls-8" d="M378.9,432.4c-3.9,2-7.4,2.9-11.2,2.4s-5-1.5-5.8-4.3a5.5,5.5,0,0,1,1.8-6.1c2.2-1.9,4.7-1.6,7.3-.5S376.7,428.7,378.9,432.4Z" transform="translate(-201.1 -240.9)"/><path class="cls-9" d="M524,366.4c-3.3,1.1,1,4.3-2.3,5.6-1.8-.1-2.6-2.7-4.2-4s-4,1.7-6.1.7,3.1-3.4.9-5.8-2.9-3.1-2.4-5.7c3.3-.6,4.7,2.4,7.1,3.8,2.1-1.7,1.9-5.9,5.8-6.1,1.3,2.9-2.5,4.2-1.7,7.1,2.5.2,5.3-1.4,8.1.4C528.4,365.1,525.7,365.1,524,366.4Z" transform="translate(-201.1 -240.9)"/><path class="cls-6" d="M426.2,388.4c5.2,6.8,4.3,13.8-2.7,19.9C418.8,402.8,419.9,394.2,426.2,388.4Z" transform="translate(-201.1 -240.9)"/><path class="cls-10" d="M502.3,439.7c3.8-1.4,8.6,0,10,2.7a18.6,18.6,0,0,0-3.1,10.9,26.8,26.8,0,0,1-8.8-1.8A25.9,25.9,0,0,0,502.3,439.7Z" transform="translate(-201.1 -240.9)"/><path class="cls-8" d="M476.9,383.1c4.1-1.4,7.9-2.7,10.6,1.4a3.2,3.2,0,0,1-2,5C480.6,390.5,479,386.7,476.9,383.1Z" transform="translate(-201.1 -240.9)"/><path class="cls-5" d="M434,271.2c2.4-.1,4.1.8,4.1,3.5s-1.3,4.1-3.7,4.2-3.8-1.4-4-3.8S431.4,271.2,434,271.2Z" transform="translate(-201.1 -240.9)"/><path class="cls-11" d="M466.1,458.4c2.2.2,3.7,1.4,3.7,3.6a3.6,3.6,0,0,1-7.3.2C462.5,460,463.9,458.8,466.1,458.4Z" transform="translate(-201.1 -240.9)"/><path class="cls-11" d="M502.3,439.7a25.9,25.9,0,0,1-2,11.8c-2.3.3-2.6-1-2.6-3a67.3,67.3,0,0,0-.5-6.7Z" transform="translate(-201.1 -240.9)"/><path class="cls-11" d="M471.5,392.8c-.2,2.3-1.4,3.6-3.4,3.6a3.3,3.3,0,1,1,0-6.6C470.2,389.7,471.2,391.1,471.5,392.8Z" transform="translate(-201.1 -240.9)"/><path class="cls-11" d="M509.1,453.3a18.6,18.6,0,0,1,3.1-10.9l3.7,3.2a17.1,17.1,0,0,0-3.7,6.5C511.6,453.8,510.8,454.5,509.1,453.3Z" transform="translate(-201.1 -240.9)"/><path class="cls-11" d="M436.6,477.8c-2-.2-3.2-1.2-3.1-3a2.9,2.9,0,0,1,5.9,0A2.8,2.8,0,0,1,436.6,477.8Z" transform="translate(-201.1 -240.9)"/><path class="cls-11" d="M345.6,394c0,2.1-.9,3.4-2.8,3.5a2.8,2.8,0,0,1-3.1-2.9,2.7,2.7,0,0,1,2.6-2.9A2.8,2.8,0,0,1,345.6,394Z" transform="translate(-201.1 -240.9)"/><path class="cls-11" d="M423,456.2c-1.6-.3-2.7-1.1-2.7-2.8a2.6,2.6,0,0,1,5.3-.1C425.7,455,424.6,455.8,423,456.2Z" transform="translate(-201.1 -240.9)"/><path class="cls-11" d="M350.1,370.1c-.4,1.4-1.1,2.4-2.7,2.4a2.5,2.5,0,0,1-2.7-2.8,2.4,2.4,0,0,1,2.6-2.4C349,367.3,349.8,368.5,350.1,370.1Z" transform="translate(-201.1 -240.9)"/><path class="cls-4" d="M476.3,358.4c.9,2.1,3.4.9,4.3,3.6.2,1-1.2,2.5-2.3,2.3-5.4-.6-8.5,2.8-11.6,6.4-3-1.8-2.6-3.7-1.1-5.8s2.2-4.3,1.3-6.8-1.2-3.4.3-4.5,3.5.3,4.6,2c2.5-2,.6-3.8.2-5.5s-1.8-4.5,1-5.4,2.7,2.3,3.8,4.2c2.1-1,2.1-2.4,1.5-4.3s-1.9-3-.2-4.5,3.2.8,4.9,1,2.4-3.5,4.8-4.3c4.3,2.7.5,5-.7,7.3.5,1.7,3.3,2.2,2.4,4.4s-2.9,1.6-4.7,1.7-2.3.4-2.4,1.8.8,1.1,1.5,1.1,3.4.5,2.8,2.8-2.1,2.4-3.8,1.9S478.2,356.2,476.3,358.4Z" transform="translate(-201.1 -240.9)"/><text class="cls-12" transform="translate(0 417.3)">HOM<tspan class="cls-13" x="239.1" y="0">E</tspan><tspan class="cls-14" x="297.6" y="0">C</tspan><tspan class="cls-1" x="367" y="0">OOK</tspan></text></svg>